# Blender 4.0.0
# www.blender.org
mtllib rod_b.mtl
o rod_b
v -0.485141 -0.485141 0.485141
v -0.485141 0.485141 0.485141
v -0.485141 -0.485141 -0.485141
v -0.485141 0.485141 -0.485141
v 0.485141 -0.485141 0.485141
v 0.485141 0.485141 0.485141
v 0.485141 -0.485141 -0.485141
v 0.485141 0.485141 -0.485141
v -0.485141 -0.485141 0.000000
v -0.485141 0.485141 0.000000
v 0.000000 -0.485141 -0.485141
v 0.000000 0.485141 -0.485141
v 0.485141 -0.485141 0.000000
v 0.485141 0.485141 0.000000
v 0.000000 -0.485141 0.485141
v 0.000000 0.485141 0.485141
v 0.000000 -0.485141 0.000000
v -0.485141 -0.485141 0.242571
v -0.485141 0.000000 0.485141
v -0.485141 0.485141 -0.242571
v -0.485141 0.000000 -0.485141
v -0.242571 -0.485141 -0.485141
v 0.242571 0.485141 -0.485141
v 0.485141 0.000000 -0.485141
v 0.485141 -0.485141 -0.242571
v 0.485141 0.485141 0.242571
v 0.485141 0.000000 0.485141
v 0.242571 -0.485141 0.485141
v -0.242571 0.485141 0.485141
v -0.485141 -0.485141 -0.242571
v -0.485141 0.485141 0.242571
v 0.242571 -0.485141 -0.485141
v -0.242571 0.485141 -0.485141
v 0.485141 -0.485141 0.242571
v 0.485141 0.485141 -0.242571
v -0.242571 -0.485141 0.485141
v 0.242571 0.485141 0.485141
v -0.000000 0.485141 0.095168
v 0.095168 0.485141 0.000000
v -0.000000 -0.485141 0.095168
v 0.000000 -0.485141 -0.242571
v -0.095168 -0.485141 -0.000000
v 0.242571 -0.485141 0.000000
v 0.000000 0.000000 0.485141
v 0.485141 0.000000 0.000000
v 0.000000 0.000000 -0.485141
v -0.485141 0.000000 0.000000
v -0.485141 0.000000 0.242571
v -0.242571 0.000000 -0.485141
v 0.485141 0.000000 -0.242571
v 0.242571 0.000000 0.485141
v 0.054963 -0.485141 -0.054963
v -0.054963 -0.485141 -0.054963
v -0.054963 -0.485141 0.054963
v -0.067294 0.485141 -0.067294
v 0.067294 0.485141 -0.067294
v 0.067294 0.485141 0.067294
v -0.067294 0.485141 0.067294
v 0.054963 -0.485141 0.054963
v -0.242571 0.000000 0.485141
v 0.485141 0.000000 0.242571
v 0.242571 0.000000 -0.485141
v -0.485141 0.000000 -0.242571
v 0.242571 -0.485141 -0.242571
v 0.095168 -0.485141 0.000000
v 0.000000 -0.485141 -0.095168
v -0.242571 -0.485141 -0.242571
v -0.242571 -0.485141 0.000000
v -0.242571 -0.485141 0.242571
v 0.000000 -0.485141 0.242571
v -0.095168 0.485141 0.000000
v -0.000000 0.485141 -0.095168
v 0.242571 -0.485141 0.242571
v -0.000000 0.415190 -0.077730
v 0.000000 0.415190 0.000000
v -0.095168 0.415190 0.000000
v -0.000000 0.415190 0.077730
v 0.095168 0.415190 0.000000
v -0.054963 0.415190 -0.054963
v 0.054963 0.415190 -0.054963
v 0.054963 0.415190 0.054963
v -0.054963 0.415190 0.054963
v 0.067294 -0.485141 -0.067294
v 0.077730 -0.485141 0.000000
v 0.000000 -0.485141 -0.077730
v -0.067294 -0.485141 -0.067294
v -0.077730 -0.485141 -0.000000
v -0.067294 -0.485141 0.067294
v -0.000000 -0.485141 0.077730
v 0.067294 -0.485141 0.067294
v -0.067294 0.415190 -0.067294
v -0.077730 0.415190 0.000000
v -0.000000 0.415190 -0.095168
v 0.067294 0.415190 -0.067294
v 0.077730 0.415190 0.000000
v 0.067294 0.415190 0.067294
v -0.000000 0.415190 0.095168
v -0.067294 0.415190 0.067294
v -0.115898 0.485141 0.000000
v -0.081952 0.485141 -0.081952
v -0.000000 0.485141 -0.115898
v 0.081952 0.485141 -0.081952
v 0.115898 0.485141 -0.000000
v 0.081952 0.485141 0.081952
v 0.000000 0.485141 0.115898
v -0.081952 0.485141 0.081952
v -0.067294 0.493546 -0.067294
v -0.095168 0.493546 0.000000
v -0.000000 0.493546 -0.095168
v 0.067294 0.493546 -0.067294
v 0.095168 0.493546 0.000000
v 0.067294 0.493546 0.067294
v -0.000000 0.493546 0.095168
v -0.067294 0.493546 0.067294
v -0.115898 0.493546 0.000000
v 0.081952 0.493546 -0.081952
v -0.081952 0.493546 0.081952
v -0.081952 0.493546 -0.081952
v -0.000000 0.493546 -0.115898
v 0.115898 0.493546 -0.000000
v 0.081952 0.493546 0.081952
v 0.000000 0.493546 0.115898
v -0.000000 0.484303 -0.224548
v 0.000000 0.485141 -0.271296
v -0.260612 0.482464 0.000000
v -0.213845 0.485141 0.000000
v -0.209412 0.484303 -0.224548
v -0.245457 0.482464 -0.260593
v 0.245457 0.482464 -0.260593
v 0.209412 0.484303 -0.224548
v 0.224529 0.484303 -0.000000
v 0.271296 0.485141 0.000000
v 0.209412 0.484303 0.224548
v 0.245457 0.482464 0.260593
v 0.000000 0.485141 0.213845
v 0.000000 0.485141 0.271296
v -0.245457 0.482464 0.260593
v -0.209412 0.484303 0.224548
v -0.224529 0.484303 -0.209420
v -0.260612 0.482464 -0.245502
v -0.000000 0.485141 -0.213845
v 0.000000 0.482464 -0.260593
v 0.260612 0.482464 -0.245502
v 0.224529 0.484303 -0.209420
v 0.224529 0.484303 0.209420
v 0.260612 0.482464 0.245502
v 0.000000 0.482464 0.260593
v 0.000000 0.484303 0.224548
v -0.260612 0.482464 0.245502
v -0.224529 0.484303 0.209420
v -0.213845 0.485141 -0.213845
v -0.271296 0.485141 -0.271296
v -0.271296 0.485141 0.000000
v -0.224529 0.484303 0.000000
v 0.271296 0.485141 -0.271296
v 0.213845 0.485141 -0.213845
v 0.213845 0.485141 -0.000000
v 0.260612 0.482464 0.000000
v 0.213845 0.485141 0.213845
v 0.271296 0.485141 0.271296
v -0.271296 0.485141 0.271296
v -0.213845 0.485141 0.213845
v -0.260612 0.407175 0.000000
v -0.224529 0.407175 0.000000
v -0.000000 0.407175 -0.224548
v 0.000000 0.407175 -0.260593
v 0.224529 0.407175 -0.000000
v 0.260612 0.407175 0.000000
v 0.000000 0.407175 0.224548
v 0.000000 0.407175 0.260593
v -0.209412 0.407175 -0.224548
v -0.245457 0.407175 -0.260593
v 0.245457 0.407175 -0.260593
v 0.209412 0.407175 -0.224548
v 0.209412 0.407175 0.224548
v 0.245457 0.407175 0.260593
v -0.245457 0.407175 0.260593
v -0.209412 0.407175 0.224548
v -0.224529 0.407175 -0.209420
v -0.260612 0.407175 -0.245502
v 0.260612 0.407175 -0.245502
v 0.224529 0.407175 -0.209420
v 0.224529 0.407175 0.209420
v 0.260612 0.407175 0.245502
v -0.260612 0.407175 0.245502
v -0.224529 0.407175 0.209420
vn -1.0000 -0.0000 -0.0000
vn -0.0000 -0.0000 -1.0000
vn 1.0000 -0.0000 -0.0000
vn -0.0000 -0.0000 1.0000
vn -0.0000 -1.0000 -0.0000
vn -0.0000 1.0000 -0.0000
vn 0.3827 -0.0000 0.9239
vn 0.9239 -0.0000 0.3827
vn 0.9239 -0.0000 -0.3827
vn -0.3827 -0.0000 0.9239
vn -0.3827 -0.0000 -0.9239
vn 0.3827 -0.0000 -0.9239
vn -0.9239 -0.0000 -0.3827
vn -0.9239 -0.0000 0.3827
vn -0.7071 -0.0000 -0.7071
vn 0.0193 0.9973 -0.0702
vn -0.0000 0.9969 -0.0781
vn -0.0000 0.9701 0.2427
vn -0.1716 0.9701 -0.1716
vn -0.0193 0.9973 0.0702
vn -0.0000 0.9701 -0.2427
vn -0.0000 0.9969 0.0781
vn 0.1716 0.9701 0.1716
vn -0.1719 0.9700 0.1719
vn 0.2431 0.9700 -0.0000
vn -0.0783 0.9969 -0.0000
vn 0.0703 0.9973 0.0194
vn 0.0783 0.9969 -0.0000
vn -0.2431 0.9700 -0.0000
vn 0.1719 0.9700 -0.1719
vn -0.0703 0.9973 -0.0194
vn 0.7071 -0.0000 0.7071
vn -0.7071 -0.0000 0.7071
vn 0.7071 -0.0000 -0.7071
vn 0.1716 0.9701 -0.1716
vn -0.0193 0.9973 -0.0702
vn -0.1716 0.9701 0.1716
vn 0.0193 0.9973 0.0702
vn -0.0703 0.9973 0.0194
vn 0.1719 0.9700 0.1719
vn 0.0703 0.9973 -0.0194
vn -0.1719 0.9700 -0.1719
vt 0.625000 0.187500
vt 0.500000 0.250000
vt 0.500000 0.187500
vt 0.625000 0.437500
vt 0.500000 0.500000
vt 0.500000 0.437500
vt 0.625000 0.687500
vt 0.500000 0.750000
vt 0.500000 0.687500
vt 0.625000 0.937500
vt 0.500000 1.000000
vt 0.500000 0.937500
vt 0.375000 0.687500
vt 0.312500 0.750000
vt 0.312500 0.687500
vt 0.715593 0.659407
vt 0.750000 0.681129
vt 0.692524 0.682476
vt 0.778591 0.596409
vt 0.750000 0.596409
vt 0.784407 0.659407
vt 0.806129 0.625000
vt 0.807476 0.682476
vt 0.250000 0.687500
vt 0.187500 0.750000
vt 0.187500 0.687500
vt 0.000000 0.000000
vt 0.375000 0.562500
vt 0.312500 0.625000
vt 0.312500 0.562500
vt 0.625000 0.812500
vt 0.500000 0.875000
vt 0.500000 0.812500
vt 0.625000 0.562500
vt 0.500000 0.625000
vt 0.500000 0.562500
vt 0.625000 0.312500
vt 0.500000 0.375000
vt 0.500000 0.312500
vt 0.625000 0.062500
vt 0.500000 0.125000
vt 0.500000 0.062500
vt 0.375000 0.125000
vt 0.375000 0.062500
vt 0.500000 0.000000
vt 0.375000 0.000000
vt 0.625000 0.000000
vt 0.375000 0.375000
vt 0.375000 0.312500
vt 0.375000 0.250000
vt 0.625000 0.250000
vt 0.375000 0.625000
vt 0.375000 0.500000
vt 0.625000 0.500000
vt 0.375000 0.875000
vt 0.375000 0.812500
vt 0.375000 0.750000
vt 0.625000 0.750000
vt 0.312500 0.500000
vt 0.250000 0.562500
vt 0.250000 0.500000
vt 0.187500 0.562500
vt 0.125000 0.625000
vt 0.125000 0.562500
vt 0.187500 0.500000
vt 0.125000 0.500000
vt 0.125000 0.750000
vt 0.125000 0.687500
vt 0.187500 0.625000
vt 0.721409 0.596409
vt 0.784407 0.590593
vt 0.750000 0.568871
vt 0.807476 0.567524
vt 0.715593 0.590593
vt 0.693871 0.625000
vt 0.692524 0.567524
vt 0.680099 0.555099
vt 0.680099 0.625000
vt 0.625000 0.625000
vt 0.750000 0.590593
vt 0.750000 0.694901
vt 0.687500 0.750000
vt 0.680099 0.694901
vt 0.715593 0.625000
vt 0.721409 0.653591
vt 0.750000 0.653591
vt 0.750000 0.659407
vt 0.778591 0.653591
vt 0.875000 0.562500
vt 0.819901 0.625000
vt 0.819901 0.555099
vt 0.250000 0.750000
vt 0.375000 1.000000
vt 0.375000 0.937500
vt 0.625000 0.875000
vt 0.375000 0.437500
vt 0.625000 0.375000
vt 0.375000 0.187500
vt 0.625000 0.125000
vt 0.278591 0.596409
vt 0.278591 0.625000
vt 0.221409 0.596409
vt 0.250000 0.596409
vt 0.221409 0.653591
vt 0.221409 0.625000
vt 0.875000 0.500000
vt 0.819901 0.555099
vt 0.812500 0.500000
vt 0.875000 0.687500
vt 0.819901 0.694901
vt 0.750000 0.555099
vt 0.750000 0.500000
vt 0.680099 0.694901
vt 0.812500 0.750000
vt 0.750000 0.750000
vt 0.784407 0.625000
vt 0.819901 0.694901
vt 0.875000 0.750000
vt 0.278591 0.653591
vt 0.250000 0.653591
vt 0.778591 0.625000
vt 0.721409 0.625000
vt 0.271717 0.603283
vt 0.273352 0.625000
vt 0.228283 0.603283
vt 0.250000 0.601648
vt 0.228283 0.646717
vt 0.226648 0.625000
vt 0.271717 0.646717
vt 0.250000 0.648352
vt 0.771717 0.603283
vt 0.773352 0.625000
vt 0.750000 0.601648
vt 0.726648 0.625000
vt 0.728283 0.603283
vt 0.728283 0.646717
vt 0.750000 0.648352
vt 0.771717 0.646717
vt 0.694169 0.565243
vt 0.750000 0.566305
vt 0.809753 0.569166
vt 0.808691 0.625000
vt 0.805831 0.684757
vt 0.750000 0.683695
vt 0.817583 0.688684
vt 0.817340 0.625000
vt 0.686327 0.557421
vt 0.817583 0.561316
vt 0.750000 0.692336
vt 0.813673 0.692579
vt 0.682660 0.625000
vt 0.682417 0.688684
vt 0.687500 0.500000
vt 0.813673 0.557421
vt 0.805831 0.565243
vt 0.819901 0.555099
vt 0.750000 0.557664
vt 0.686327 0.692579
vt 0.694169 0.684757
vt 0.819901 0.694901
vt 0.682417 0.561316
vt 0.690247 0.569166
vt 0.691309 0.625000
vt 0.680099 0.555099
vt 0.690247 0.680834
vt 0.809753 0.680834
vt 0.625000 1.000000
vt 0.875000 0.625000
s 0
f 20/1/1 21/2/1 63/3/1
f 23/4/2 24/5/2 62/6/2
f 26/7/3 27/8/3 61/9/3
f 29/10/4 19/11/4 60/12/4
f 34/13/5 28/14/5 73/15/5
f 104/16/6 135/17/6 159/18/6
f 55/19/7 93/20/7 72/20/7
f 106/21/6 126/22/6 162/23/6
f 70/24/5 36/25/5 69/26/5
f 85/27/7 79/27/7 53/27/7
f 25/28/5 43/29/5 64/30/5
f 37/31/4 44/32/4 51/33/4
f 35/34/3 45/35/3 50/36/3
f 33/37/2 46/38/2 49/39/2
f 31/40/1 47/41/1 48/42/1
f 48/42/1 9/43/1 18/44/1
f 19/45/1 18/44/1 1/46/1
f 2/47/1 48/42/1 19/45/1
f 49/39/2 11/48/2 22/49/2
f 21/2/2 22/49/2 3/50/2
f 4/51/2 49/39/2 21/2/2
f 50/36/3 13/52/3 25/28/3
f 24/5/3 25/28/3 7/53/3
f 8/54/3 50/36/3 24/5/3
f 51/33/4 15/55/4 28/56/4
f 27/8/4 28/56/4 5/57/4
f 6/58/4 51/33/4 27/8/4
f 53/27/8 92/27/8 87/27/8
f 32/59/5 41/60/5 11/61/5
f 7/53/5 64/30/5 32/59/5
f 67/62/5 9/63/5 30/64/5
f 22/65/5 30/64/5 3/66/5
f 11/61/5 67/62/5 22/65/5
f 69/26/5 1/67/5 18/68/5
f 68/69/5 18/68/5 9/63/5
f 87/27/9 82/27/9 54/27/9
f 72/20/10 94/70/10 56/70/10
f 100/71/6 141/72/6 151/73/6
f 102/74/6 157/75/6 156/76/6
f 8/54/6 155/77/6 35/34/6
f 132/78/6 26/7/6 14/79/6
f 102/74/6 141/72/6 101/80/6
f 136/81/6 37/82/6 160/83/6
f 104/16/6 157/75/6 103/84/6
f 57/85/11 97/86/11 38/86/11
f 106/21/6 135/17/6 105/87/6
f 38/86/12 98/88/12 58/88/12
f 20/89/6 153/90/6 152/91/6
f 73/15/5 15/92/5 70/24/5
f 54/27/12 77/27/12 89/27/12
f 13/52/5 73/15/5 43/29/5
f 60/12/4 1/93/4 36/94/4
f 44/32/4 36/94/4 15/55/4
f 16/95/4 60/12/4 44/32/4
f 61/9/3 5/57/3 34/13/3
f 45/35/3 34/13/3 13/52/3
f 14/79/3 61/9/3 45/35/3
f 62/6/2 7/53/2 32/96/2
f 46/38/2 32/96/2 11/48/2
f 12/97/2 62/6/2 46/38/2
f 63/3/1 3/50/1 30/98/1
f 47/41/1 30/98/1 9/43/1
f 10/99/1 63/3/1 47/41/1
f 83/100/5 43/29/5 65/101/5
f 83/100/5 41/60/5 64/30/5
f 86/102/5 68/69/5 67/62/5
f 86/102/5 41/60/5 66/103/5
f 88/104/5 68/69/5 42/105/5
f 88/104/5 70/24/5 69/26/5
f 4/106/6 152/107/6 33/108/6
f 153/90/6 31/109/6 161/110/6
f 35/34/6 132/78/6 14/79/6
f 33/108/6 124/111/6 12/112/6
f 160/113/6 6/58/6 26/7/6
f 136/81/6 29/114/6 16/115/6
f 100/71/6 126/22/6 99/116/6
f 161/117/6 2/118/6 29/114/6
f 90/119/5 43/29/5 73/15/5
f 90/119/5 70/24/5 40/120/5
f 89/27/11 81/27/11 59/27/11
f 59/27/13 95/27/13 84/27/13
f 84/27/14 80/27/14 52/27/14
f 52/27/10 74/27/10 85/27/10
f 58/88/9 76/121/9 71/121/9
f 39/122/13 96/85/13 57/85/13
f 56/70/14 78/122/14 39/122/14
f 71/121/8 91/19/8 55/19/8
f 52/123/5 65/101/5 84/124/5
f 52/123/5 66/103/5 83/100/5
f 53/125/5 42/105/5 86/102/5
f 53/125/5 66/103/5 85/126/5
f 54/127/5 42/105/5 87/128/5
f 54/127/5 40/120/5 88/104/5
f 59/129/5 65/101/5 90/119/5
f 59/129/5 40/120/5 89/130/5
f 79/131/6 76/121/6 92/132/6
f 74/133/6 91/19/6 79/131/6
f 95/134/6 94/70/6 80/135/6
f 80/135/6 93/20/6 74/133/6
f 81/136/6 78/122/6 95/134/6
f 77/137/6 96/85/6 81/136/6
f 92/132/6 98/88/6 82/138/6
f 82/138/6 97/86/6 77/137/6
f 99/116/13 118/71/13 100/71/13
f 55/19/8 108/121/8 71/121/8
f 58/88/12 113/86/12 38/86/12
f 100/71/11 119/80/11 101/80/11
f 71/121/9 114/88/9 58/88/9
f 102/74/9 120/84/9 103/84/9
f 38/86/11 112/85/11 57/85/11
f 101/80/12 116/74/12 102/74/12
f 113/86/6 117/21/6 122/87/6
f 114/88/6 115/116/6 117/21/6
f 113/86/6 121/16/6 112/85/6
f 111/122/6 121/16/6 120/84/6
f 109/20/6 116/74/6 119/80/6
f 111/122/6 116/74/6 110/70/6
f 107/19/6 119/80/6 118/71/6
f 108/121/6 118/71/6 115/116/6
f 105/87/10 117/21/10 106/21/10
f 72/20/7 107/19/7 55/19/7
f 106/21/14 115/116/14 99/116/14
f 39/122/14 110/70/14 56/70/14
f 104/16/7 122/87/7 105/87/7
f 56/70/10 109/20/10 72/20/10
f 103/84/8 121/16/8 104/16/8
f 57/85/13 111/122/13 39/122/13
f 130/139/2 165/140/2 123/140/2
f 139/141/1 164/142/1 154/142/1
f 138/143/4 169/144/4 148/144/4
f 149/145/3 163/146/3 125/146/3
f 129/147/15 174/139/15 130/139/15
f 125/146/3 180/148/3 140/148/3
f 147/149/2 177/150/2 137/150/2
f 158/151/1 184/152/1 146/152/1
f 23/153/6 124/111/6 155/77/6
f 128/154/16 151/73/16 127/155/16
f 127/155/17 141/72/17 123/140/17
f 128/154/18 124/111/18 152/156/18
f 129/147/19 156/76/19 155/77/19
f 130/139/17 141/72/17 156/76/17
f 129/147/18 124/111/18 142/157/18
f 134/158/20 159/18/20 133/159/20
f 134/158/21 136/81/21 160/83/21
f 133/159/22 135/17/22 148/144/22
f 137/150/23 162/23/23 161/160/23
f 137/150/21 136/81/21 147/149/21
f 138/143/22 135/17/22 162/23/22
f 140/148/24 151/73/24 152/91/24
f 140/148/25 153/90/25 125/146/25
f 139/141/26 126/22/26 151/73/26
f 143/161/27 156/76/27 144/162/27
f 144/162/28 157/75/28 131/163/28
f 143/161/29 132/78/29 155/164/29
f 145/165/28 157/75/28 159/18/28
f 146/152/30 159/18/30 160/83/30
f 146/152/29 132/78/29 158/151/29
f 149/145/25 153/90/25 161/110/25
f 149/145/31 162/23/31 150/166/31
f 150/166/26 126/22/26 154/142/26
f 163/146/6 179/141/6 180/148/6
f 171/155/6 166/157/6 172/154/6
f 182/162/6 168/151/6 181/161/6
f 174/139/6 166/157/6 165/140/6
f 183/165/6 168/151/6 167/163/6
f 170/149/6 175/159/6 169/144/6
f 163/146/6 186/166/6 164/142/6
f 170/149/6 178/143/6 177/150/6
f 149/145/15 186/166/15 185/145/15
f 143/161/32 182/162/32 181/161/32
f 142/157/4 173/147/4 129/147/4
f 154/142/1 186/166/1 150/166/1
f 131/163/3 182/162/3 144/162/3
f 134/158/33 175/159/33 176/158/33
f 143/161/1 168/151/1 158/151/1
f 134/158/2 170/149/2 147/149/2
f 128/154/34 171/155/34 172/154/34
f 145/165/3 167/163/3 131/163/3
f 148/144/4 175/159/4 133/159/4
f 123/140/2 171/155/2 127/155/2
f 146/152/34 183/165/34 145/165/34
f 137/150/32 178/143/32 138/143/32
f 140/148/33 179/141/33 139/141/33
f 128/154/4 166/157/4 142/157/4
f 20/1/1 4/51/1 21/2/1
f 23/4/2 8/54/2 24/5/2
f 26/7/3 6/58/3 27/8/3
f 29/10/4 2/167/4 19/11/4
f 34/13/5 5/57/5 28/14/5
f 104/16/6 105/87/6 135/17/6
f 55/19/7 91/19/7 93/20/7
f 106/21/6 99/116/6 126/22/6
f 70/24/5 15/92/5 36/25/5
f 85/27/7 74/27/7 79/27/7
f 25/28/5 13/52/5 43/29/5
f 37/31/4 16/95/4 44/32/4
f 35/34/3 14/79/3 45/35/3
f 33/37/2 12/97/2 46/38/2
f 31/40/1 10/99/1 47/41/1
f 48/42/1 47/41/1 9/43/1
f 19/45/1 48/42/1 18/44/1
f 2/47/1 31/40/1 48/42/1
f 49/39/2 46/38/2 11/48/2
f 21/2/2 49/39/2 22/49/2
f 4/51/2 33/37/2 49/39/2
f 50/36/3 45/35/3 13/52/3
f 24/5/3 50/36/3 25/28/3
f 8/54/3 35/34/3 50/36/3
f 51/33/4 44/32/4 15/55/4
f 27/8/4 51/33/4 28/56/4
f 6/58/4 37/31/4 51/33/4
f 53/27/8 79/27/8 92/27/8
f 32/59/5 64/30/5 41/60/5
f 7/53/5 25/28/5 64/30/5
f 67/62/5 68/69/5 9/63/5
f 22/65/5 67/62/5 30/64/5
f 11/61/5 41/60/5 67/62/5
f 69/26/5 36/25/5 1/67/5
f 68/69/5 69/26/5 18/68/5
f 87/27/9 92/27/9 82/27/9
f 72/20/10 93/20/10 94/70/10
f 100/71/6 101/80/6 141/72/6
f 102/74/6 103/84/6 157/75/6
f 8/54/6 23/153/6 155/77/6
f 132/78/6 160/83/6 26/7/6
f 102/74/6 156/76/6 141/72/6
f 136/81/6 16/115/6 37/82/6
f 104/16/6 159/18/6 157/75/6
f 57/85/11 96/85/11 97/86/11
f 106/21/6 162/23/6 135/17/6
f 38/86/12 97/86/12 98/88/12
f 20/89/6 10/168/6 153/90/6
f 73/15/5 28/14/5 15/92/5
f 54/27/12 82/27/12 77/27/12
f 13/52/5 34/13/5 73/15/5
f 60/12/4 19/11/4 1/93/4
f 44/32/4 60/12/4 36/94/4
f 16/95/4 29/10/4 60/12/4
f 61/9/3 27/8/3 5/57/3
f 45/35/3 61/9/3 34/13/3
f 14/79/3 26/7/3 61/9/3
f 62/6/2 24/5/2 7/53/2
f 46/38/2 62/6/2 32/96/2
f 12/97/2 23/4/2 62/6/2
f 63/3/1 21/2/1 3/50/1
f 47/41/1 63/3/1 30/98/1
f 10/99/1 20/1/1 63/3/1
f 83/100/5 64/30/5 43/29/5
f 83/100/5 66/103/5 41/60/5
f 86/102/5 42/105/5 68/69/5
f 86/102/5 67/62/5 41/60/5
f 88/104/5 69/26/5 68/69/5
f 88/104/5 40/120/5 70/24/5
f 4/106/6 20/89/6 152/107/6
f 153/90/6 10/168/6 31/109/6
f 35/34/6 155/164/6 132/78/6
f 33/108/6 152/156/6 124/111/6
f 160/113/6 37/82/6 6/58/6
f 136/81/6 161/160/6 29/114/6
f 100/71/6 151/73/6 126/22/6
f 161/117/6 31/109/6 2/118/6
f 90/119/5 65/101/5 43/29/5
f 90/119/5 73/15/5 70/24/5
f 89/27/11 77/27/11 81/27/11
f 59/27/13 81/27/13 95/27/13
f 84/27/14 95/27/14 80/27/14
f 52/27/10 80/27/10 74/27/10
f 58/88/9 98/88/9 76/121/9
f 39/122/13 78/122/13 96/85/13
f 56/70/14 94/70/14 78/122/14
f 71/121/8 76/121/8 91/19/8
f 52/123/5 83/100/5 65/101/5
f 52/123/5 85/126/5 66/103/5
f 53/125/5 87/128/5 42/105/5
f 53/125/5 86/102/5 66/103/5
f 54/127/5 88/104/5 42/105/5
f 54/127/5 89/130/5 40/120/5
f 59/129/5 84/124/5 65/101/5
f 59/129/5 90/119/5 40/120/5
f 79/131/6 91/19/6 76/121/6
f 74/133/6 93/20/6 91/19/6
f 95/134/6 78/122/6 94/70/6
f 80/135/6 94/70/6 93/20/6
f 81/136/6 96/85/6 78/122/6
f 77/137/6 97/86/6 96/85/6
f 92/132/6 76/121/6 98/88/6
f 82/138/6 98/88/6 97/86/6
f 99/116/13 115/116/13 118/71/13
f 55/19/8 107/19/8 108/121/8
f 58/88/12 114/88/12 113/86/12
f 100/71/11 118/71/11 119/80/11
f 71/121/9 108/121/9 114/88/9
f 102/74/9 116/74/9 120/84/9
f 38/86/11 113/86/11 112/85/11
f 101/80/12 119/80/12 116/74/12
f 113/86/6 114/88/6 117/21/6
f 114/88/6 108/121/6 115/116/6
f 113/86/6 122/87/6 121/16/6
f 111/122/6 112/85/6 121/16/6
f 109/20/6 110/70/6 116/74/6
f 111/122/6 120/84/6 116/74/6
f 107/19/6 109/20/6 119/80/6
f 108/121/6 107/19/6 118/71/6
f 105/87/10 122/87/10 117/21/10
f 72/20/7 109/20/7 107/19/7
f 106/21/14 117/21/14 115/116/14
f 39/122/14 111/122/14 110/70/14
f 104/16/7 121/16/7 122/87/7
f 56/70/10 110/70/10 109/20/10
f 103/84/8 120/84/8 121/16/8
f 57/85/13 112/85/13 111/122/13
f 130/139/2 174/139/2 165/140/2
f 139/141/1 179/141/1 164/142/1
f 138/143/4 178/143/4 169/144/4
f 149/145/3 185/145/3 163/146/3
f 129/147/15 173/147/15 174/139/15
f 125/146/3 163/146/3 180/148/3
f 147/149/2 170/149/2 177/150/2
f 158/151/1 168/151/1 184/152/1
f 23/153/6 12/112/6 124/111/6
f 128/154/35 152/156/35 151/73/35
f 127/155/17 151/73/17 141/72/17
f 128/154/18 142/157/18 124/111/18
f 129/147/36 130/139/36 156/76/36
f 130/139/17 123/140/17 141/72/17
f 129/147/18 155/77/18 124/111/18
f 134/158/37 160/83/37 159/18/37
f 134/158/21 147/149/21 136/81/21
f 133/159/22 159/18/22 135/17/22
f 137/150/38 138/143/38 162/23/38
f 137/150/21 161/160/21 136/81/21
f 138/143/22 148/144/22 135/17/22
f 140/148/39 139/141/39 151/73/39
f 140/148/25 152/91/25 153/90/25
f 139/141/26 154/142/26 126/22/26
f 143/161/40 155/164/40 156/76/40
f 144/162/28 156/76/28 157/75/28
f 143/161/29 158/151/29 132/78/29
f 145/165/28 131/163/28 157/75/28
f 146/152/41 145/165/41 159/18/41
f 146/152/29 160/83/29 132/78/29
f 149/145/25 125/146/25 153/90/25
f 149/145/42 161/110/42 162/23/42
f 150/166/26 162/23/26 126/22/26
f 163/146/6 164/142/6 179/141/6
f 171/155/6 165/140/6 166/157/6
f 182/162/6 167/163/6 168/151/6
f 174/139/6 173/147/6 166/157/6
f 183/165/6 184/152/6 168/151/6
f 170/149/6 176/158/6 175/159/6
f 163/146/6 185/145/6 186/166/6
f 170/149/6 169/144/6 178/143/6
f 149/145/15 150/166/15 186/166/15
f 143/161/32 144/162/32 182/162/32
f 142/157/4 166/157/4 173/147/4
f 154/142/1 164/142/1 186/166/1
f 131/163/3 167/163/3 182/162/3
f 134/158/33 133/159/33 175/159/33
f 143/161/1 181/161/1 168/151/1
f 134/158/2 176/158/2 170/149/2
f 128/154/34 127/155/34 171/155/34
f 145/165/3 183/165/3 167/163/3
f 148/144/4 169/144/4 175/159/4
f 123/140/2 165/140/2 171/155/2
f 146/152/34 184/152/34 183/165/34
f 137/150/32 177/150/32 178/143/32
f 140/148/33 180/148/33 179/141/33
f 128/154/4 172/154/4 166/157/4
