# Blender 4.0.0
# www.blender.org
mtllib rod_c.mtl
o rod_c
v -0.485141 -0.485141 0.485141
v -0.485141 0.485141 0.485141
v -0.485141 -0.485141 -0.485141
v -0.485141 0.485141 -0.485141
v 0.485141 -0.485141 0.485141
v 0.485141 0.485141 0.485141
v 0.485141 -0.485141 -0.485141
v 0.485141 0.485141 -0.485141
v 0.000000 -0.485141 -0.485141
v 0.000000 0.485141 -0.485141
v 0.485141 -0.485141 0.000000
v 0.485141 0.485141 0.000000
v 0.000000 -0.485141 0.485141
v 0.000000 0.485141 0.485141
v -0.485141 -0.485141 0.242571
v -0.485141 0.000000 0.485141
v -0.485141 0.485141 -0.242571
v -0.485141 0.000000 -0.485141
v -0.077712 -0.485141 -0.485141
v 0.077712 0.485141 -0.485141
v 0.485141 0.000000 -0.485141
v 0.485141 -0.485141 -0.242571
v 0.485141 0.485141 0.242571
v 0.485141 0.000000 0.485141
v 0.077712 -0.485141 0.485141
v -0.077712 0.485141 0.485141
v -0.485141 -0.485141 -0.242571
v -0.485141 0.485141 0.242571
v 0.077712 -0.485141 -0.485141
v -0.077712 0.485141 -0.485141
v 0.485141 -0.485141 0.242571
v 0.485141 0.485141 -0.242571
v -0.077712 -0.485141 0.485141
v 0.077712 0.485141 0.485141
v 0.000000 -0.485141 -0.242571
v 0.077712 -0.485141 0.000000
v 0.000000 0.000000 0.485141
v 0.485141 0.000000 0.000000
v 0.000000 0.000000 -0.485141
v -0.485141 0.000000 0.242571
v -0.077712 0.000000 -0.485141
v 0.485141 0.000000 -0.242571
v 0.077712 0.000000 0.485141
v -0.077712 0.000000 0.485141
v 0.485141 0.000000 0.242571
v 0.077712 0.000000 -0.485141
v -0.485141 0.000000 -0.242571
v 0.077712 -0.485141 -0.242571
v -0.077712 -0.485141 -0.242571
v -0.077712 -0.485141 0.242571
v 0.000000 -0.485141 0.242571
v 0.077712 -0.485141 0.242571
v -0.485141 -0.485141 0.011146
v -0.485141 -0.485141 -0.011146
v -0.485141 0.485141 -0.011146
v -0.485141 0.485141 0.011146
v 0.000000 0.473995 -0.242571
v 0.000000 0.485141 -0.253717
v -0.088858 0.485141 0.011146
v -0.077712 0.473995 0.011146
v -0.077712 0.473995 -0.011146
v -0.088858 0.485141 -0.011146
v -0.485141 0.000000 0.011146
v -0.485141 0.000000 -0.011146
v -0.077712 -0.485141 -0.011146
v -0.077712 -0.485141 0.011146
v -0.077712 0.473995 -0.242571
v -0.088858 0.485141 -0.253717
v 0.088858 0.485141 -0.253717
v 0.077712 0.473995 -0.242571
v 0.077712 0.473995 0.000000
v 0.088858 0.485141 0.000000
v 0.077712 0.473995 0.242571
v 0.088858 0.485141 0.253717
v 0.000000 0.473995 0.242571
v 0.000000 0.485141 0.253717
v -0.088858 0.485141 0.253717
v -0.077712 0.473995 0.242571
vn -1.0000 -0.0000 -0.0000
vn -0.0000 -0.0000 -1.0000
vn 1.0000 -0.0000 -0.0000
vn -0.0000 -0.0000 1.0000
vn -0.0000 -1.0000 -0.0000
vn -0.0000 1.0000 -0.0000
vn 0.7071 0.7071 -0.0000
vn -0.0000 0.7071 0.7071
vn -0.7071 0.7071 -0.0000
vn -0.0000 0.7071 -0.7071
vt 0.625000 0.187500
vt 0.500000 0.250000
vt 0.500000 0.187500
vt 0.625000 0.437500
vt 0.500000 0.500000
vt 0.500000 0.437500
vt 0.625000 0.687500
vt 0.500000 0.750000
vt 0.500000 0.687500
vt 0.625000 0.937500
vt 0.500000 1.000000
vt 0.500000 0.937500
vt 0.375000 0.687500
vt 0.312500 0.750000
vt 0.312500 0.687500
vt 0.683192 0.687500
vt 0.250000 0.687500
vt 0.744256 0.687500
vt 0.625000 0.062500
vt 0.500000 0.122128
vt 0.500000 0.062500
vt 0.187500 0.750000
vt 0.187500 0.687500
vt 0.375000 0.562500
vt 0.312500 0.625000
vt 0.312500 0.562500
vt 0.625000 0.812500
vt 0.500000 0.875000
vt 0.500000 0.812500
vt 0.625000 0.562500
vt 0.500000 0.625000
vt 0.500000 0.562500
vt 0.625000 0.312500
vt 0.500000 0.375000
vt 0.500000 0.312500
vt 0.687500 0.500000
vt 0.750000 0.559628
vt 0.678536 0.559628
vt 0.187500 0.562500
vt 0.125000 0.622128
vt 0.125000 0.562500
vt 0.500000 0.000000
vt 0.375000 0.062500
vt 0.375000 0.000000
vt 0.625000 0.000000
vt 0.375000 0.375000
vt 0.375000 0.312500
vt 0.375000 0.250000
vt 0.625000 0.250000
vt 0.375000 0.625000
vt 0.375000 0.500000
vt 0.625000 0.500000
vt 0.375000 0.875000
vt 0.375000 0.812500
vt 0.375000 0.750000
vt 0.625000 0.750000
vt 0.312500 0.500000
vt 0.250000 0.562500
vt 0.250000 0.500000
vt 0.187500 0.627872
vt 0.125000 0.687500
vt 0.125000 0.627872
vt 0.187500 0.500000
vt 0.125000 0.500000
vt 0.125000 0.750000
vt 0.814210 0.627872
vt 0.875000 0.687500
vt 0.814210 0.690372
vt 0.744256 0.562500
vt 0.683192 0.625000
vt 0.685790 0.559628
vt 0.685790 0.625000
vt 0.625000 0.625000
vt 0.683192 0.562500
vt 0.750000 0.690372
vt 0.687500 0.750000
vt 0.678536 0.690372
vt 0.625000 0.127872
vt 0.500000 0.127872
vt 0.250000 0.750000
vt 0.375000 1.000000
vt 0.375000 0.937500
vt 0.625000 0.875000
vt 0.375000 0.437500
vt 0.625000 0.375000
vt 0.375000 0.187500
vt 0.375000 0.122128
vt 0.875000 0.562500
vt 0.814210 0.622128
vt 0.814210 0.559628
vt 0.812500 0.500000
vt 0.750000 0.500000
vt 0.805320 0.622128
vt 0.187500 0.622128
vt 0.805320 0.687500
vt 0.875000 0.500000
vt 0.814210 0.559628
vt 0.814210 0.690372
vt 0.875000 0.750000
vt 0.812500 0.750000
vt 0.750000 0.750000
vt 0.685790 0.690372
vt 0.685790 0.625000
vt 0.805320 0.627872
vt 0.375000 0.127872
vt 0.500000 0.122128
vt 0.875000 0.622128
vt 0.875000 0.627872
vt 0.625000 0.122128
vt 0.805320 0.562500
vt 0.821464 0.559628
vt 0.821464 0.690372
vt 0.625000 1.000000
vt 0.685790 0.690372
s 0
usemtl Material.001
f 17/1/1 18/2/1 47/3/1
f 20/4/2 21/5/2 46/6/2
f 23/7/3 24/8/3 45/9/3
f 26/10/4 16/11/4 44/12/4
f 31/13/5 25/14/5 52/15/5
f 73/16/2 51/17/2 75/18/2
f 28/19/1 63/20/1 40/21/1
f 51/17/5 33/22/5 50/23/5
f 22/24/5 36/25/5 48/26/5
f 34/27/4 37/28/4 43/29/4
f 32/30/3 38/31/3 42/32/3
f 30/33/2 39/34/2 41/35/2
f 20/36/6 58/37/6 69/38/6
f 49/39/5 54/40/5 27/41/5
f 16/42/1 15/43/1 1/44/1
f 2/45/1 40/21/1 16/42/1
f 41/35/2 9/46/2 19/47/2
f 18/2/2 19/47/2 3/48/2
f 4/49/2 41/35/2 18/2/2
f 42/32/3 11/50/3 22/24/3
f 21/5/3 22/24/3 7/51/3
f 8/52/3 42/32/3 21/5/3
f 43/29/4 13/53/4 25/54/4
f 24/8/4 25/54/4 5/55/4
f 6/56/4 43/29/4 24/8/4
f 29/57/5 35/58/5 9/59/5
f 7/51/5 48/26/5 29/57/5
f 66/60/5 15/61/5 53/62/5
f 19/63/5 27/41/5 3/64/5
f 9/59/5 49/39/5 19/63/5
f 50/23/5 1/65/5 15/61/5
f 59/66/6 28/67/6 77/68/6
f 57/69/4 49/39/4 35/58/4
f 71/70/1 48/26/1 36/25/1
f 8/52/6 69/71/6 32/30/6
f 72/72/6 23/7/6 12/73/6
f 70/74/4 35/58/4 48/26/4
f 76/75/6 34/76/6 74/77/6
f 71/70/1 52/15/1 73/16/1
f 50/23/2 75/18/2 51/17/2
f 55/78/1 47/3/1 64/79/1
f 52/15/5 13/80/5 51/17/5
f 11/50/5 52/15/5 36/25/5
f 44/12/4 1/81/4 33/82/4
f 37/28/4 33/82/4 13/53/4
f 14/83/4 44/12/4 37/28/4
f 45/9/3 5/55/3 31/13/3
f 38/31/3 31/13/3 11/50/3
f 12/73/3 45/9/3 38/31/3
f 46/6/2 7/51/2 29/84/2
f 39/34/2 29/84/2 9/46/2
f 10/85/2 46/6/2 39/34/2
f 47/3/1 3/48/1 27/86/1
f 40/21/1 53/87/1 15/43/1
f 17/88/6 62/89/6 68/90/6
f 30/91/6 58/37/6 10/92/6
f 49/39/3 61/93/3 65/94/3
f 66/60/3 78/95/3 50/23/3
f 4/96/6 68/97/6 30/91/6
f 77/98/6 2/99/6 26/100/6
f 76/75/6 26/100/6 14/101/6
f 74/102/6 6/56/6 23/7/6
f 32/30/6 72/103/6 12/73/6
f 60/104/7 62/89/7 59/66/7
f 53/62/5 65/94/5 66/60/5
f 54/105/1 63/106/1 64/79/1
f 59/66/6 55/107/6 56/108/6
f 64/79/1 56/109/1 55/78/1
f 62/89/7 67/110/7 68/90/7
f 67/110/8 58/37/8 68/111/8
f 70/74/9 72/103/9 69/71/9
f 70/74/8 58/37/8 57/69/8
f 73/16/9 72/72/9 71/70/9
f 76/75/10 73/16/10 75/18/10
f 59/66/7 78/95/7 60/104/7
f 76/75/10 78/95/10 77/112/10
f 61/93/3 66/60/3 65/94/3
f 64/79/1 27/86/1 54/105/1
f 17/1/1 4/49/1 18/2/1
f 20/4/2 8/52/2 21/5/2
f 23/7/3 6/56/3 24/8/3
f 26/10/4 2/113/4 16/11/4
f 31/13/5 5/55/5 25/14/5
f 73/16/2 52/15/2 51/17/2
f 28/19/1 56/109/1 63/20/1
f 51/17/5 13/80/5 33/22/5
f 22/24/5 11/50/5 36/25/5
f 34/27/4 14/83/4 37/28/4
f 32/30/3 12/73/3 38/31/3
f 30/33/2 10/85/2 39/34/2
f 20/36/6 10/92/6 58/37/6
f 49/39/5 65/94/5 54/40/5
f 16/42/1 40/21/1 15/43/1
f 2/45/1 28/19/1 40/21/1
f 41/35/2 39/34/2 9/46/2
f 18/2/2 41/35/2 19/47/2
f 4/49/2 30/33/2 41/35/2
f 42/32/3 38/31/3 11/50/3
f 21/5/3 42/32/3 22/24/3
f 8/52/3 32/30/3 42/32/3
f 43/29/4 37/28/4 13/53/4
f 24/8/4 43/29/4 25/54/4
f 6/56/4 34/27/4 43/29/4
f 29/57/5 48/26/5 35/58/5
f 7/51/5 22/24/5 48/26/5
f 66/60/5 50/23/5 15/61/5
f 19/63/5 49/39/5 27/41/5
f 9/59/5 35/58/5 49/39/5
f 50/23/5 33/22/5 1/65/5
f 59/66/6 56/108/6 28/67/6
f 57/69/4 67/110/4 49/39/4
f 71/70/1 70/74/1 48/26/1
f 8/52/6 20/36/6 69/71/6
f 72/72/6 74/114/6 23/7/6
f 70/74/4 57/69/4 35/58/4
f 76/75/6 14/101/6 34/76/6
f 71/70/1 36/25/1 52/15/1
f 50/23/2 78/95/2 75/18/2
f 55/78/1 17/1/1 47/3/1
f 52/15/5 25/14/5 13/80/5
f 11/50/5 31/13/5 52/15/5
f 44/12/4 16/11/4 1/81/4
f 37/28/4 44/12/4 33/82/4
f 14/83/4 26/10/4 44/12/4
f 45/9/3 24/8/3 5/55/3
f 38/31/3 45/9/3 31/13/3
f 12/73/3 23/7/3 45/9/3
f 46/6/2 21/5/2 7/51/2
f 39/34/2 46/6/2 29/84/2
f 10/85/2 20/4/2 46/6/2
f 47/3/1 18/2/1 3/48/1
f 40/21/1 63/106/1 53/87/1
f 17/88/6 55/107/6 62/89/6
f 30/91/6 68/111/6 58/37/6
f 49/39/3 67/110/3 61/93/3
f 66/60/3 60/104/3 78/95/3
f 4/96/6 17/88/6 68/97/6
f 77/98/6 28/67/6 2/99/6
f 76/75/6 77/112/6 26/100/6
f 74/102/6 34/76/6 6/56/6
f 32/30/6 69/71/6 72/103/6
f 60/104/7 61/93/7 62/89/7
f 53/62/5 54/40/5 65/94/5
f 54/105/1 53/87/1 63/106/1
f 59/66/6 62/89/6 55/107/6
f 64/79/1 63/20/1 56/109/1
f 62/89/7 61/93/7 67/110/7
f 67/110/8 57/69/8 58/37/8
f 70/74/9 71/70/9 72/103/9
f 70/74/8 69/38/8 58/37/8
f 73/16/9 74/114/9 72/72/9
f 76/75/10 74/77/10 73/16/10
f 59/66/7 77/68/7 78/95/7
f 76/75/10 75/18/10 78/95/10
f 61/93/3 60/104/3 66/60/3
f 64/79/1 47/3/1 27/86/1
